# WaveFront *.obj file (generated by CINEMA 4D)

mtllib ./H-mount.mtl

v 0.38556757569313 -0.44039982557297 -0.24702687561512
v 0.38556757569313 -0.44039982557297 0.26037362217903
v 0.38556757569313 0.03317351266742 0.26037362217903
v 0.38556757569313 0.03317351266742 -0.24702687561512
v -0.08800612390041 -0.44039982557297 -0.24702687561512
v -0.08800612390041 0.03317351266742 -0.24702687561512
v -0.43529343605042 -0.09035912901163 -0.11467084288597
v -0.43529343605042 -0.31686669588089 -0.11467084288597
v -0.04301656410098 -0.91397386789322 -0.19882419705391
v 0.34057828783989 -0.91397386789322 -0.19882436096668
v 0.43529298901558 0.10082759708166 0.31365057826042
v 0.43529298901558 0.10082759708166 -0.30030378699303
v -0.08800612390041 -0.44039982557297 0.26037362217903
v -0.08800612390041 0.03317351266742 0.26037362217903
v -0.04301641508937 -0.91397386789322 0.21217003464699
v 0.34057801961899 -0.91397386789322 0.21217019855976
v 0.02294263988733 -1.72581589221954 -0.12815402448177
v 0.27461957931519 -1.72581589221954 -0.12815418839455
v 0.02294293418527 -1.72581589221954 0.14149922132492
v 0.27461943030357 -1.72581589221954 0.14149932563305
v -0.00348350545391 -1.77542781829834 -0.15646766126156
v 0.30104556679726 -1.77542781829834 -0.15646776556969
v -0.13773123919964 0.10082759708166 0.31365045905113
v -0.13773123919964 0.10082759708166 -0.30030384659767
v 0.43529343605042 0.30378738045692 0.31365057826042
v 0.43529343605042 0.30378738045692 -0.30030372738838
v -0.1377307921648 0.30378738045692 0.31365045905113
v -0.1377307921648 0.30378738045692 -0.30030390620232
v 0.35764867067337 0.43909406661987 0.23045945167542
v 0.35764896869659 0.43909406661987 -0.21711324155331
v -0.02040098235011 0.4111964404583 0.44543427228928
v 0.31796407699585 0.4111964404583 0.44543433189392
v -0.0600858964026 0.43909406661987 -0.2171133607626
v -0.0600858964026 0.43909406661987 0.23045940697193
v 0.33676186203957 0.4127225279808 -0.44595265388489
v -0.0391991995275 0.4127225279808 -0.44595277309418
v 0.30104571580887 0.50674712657928 0.16981343924999
v 0.30104586482048 0.50674712657928 -0.15646696090698
v -0.00348261836916 0.50674712657928 0.16981333494186
v -0.00348261836916 0.50674712657928 -0.15646712481976
v 0.25978195667267 0.43909355998039 0.12560242414474
v 0.25978210568428 0.43909355998039 -0.11225600540638
v 0.03778095543385 0.43909355998039 0.12560231983662
v 0.03778095543385 0.43909355998039 -0.11225605756044
v 0.02544748224318 0.49109390377998 0.39631071686745
v 0.27211558818817 0.49109390377998 0.39631083607674
v 0.01174381934106 0.45249438285828 0.50370275974274
v 0.28581956028938 0.45249438285828 0.50370281934738
v 0.0488810017705 0.51721090078354 0.46391278505325
v 0.23779286444187 0.75181007385254 0.29170262813568
v 0.0597700625658 0.75181007385254 0.29170250892639
v 0.24868221580982 0.51721090078354 0.46391281485558
v 0.22088085114956 0.77065986394882 0.34049162268639
v 0.07668236643076 0.77065986394882 0.34049156308174
v 0.19646689295769 0.78353178501129 0.18284824490547
v 0.1010961830616 0.78353178501129 0.18284830451012
v 0.22128142416477 0.82112222909927 0.28953623771667
v 0.07628180086613 0.82112222909927 0.28953623771667
v 0.28581956028938 0.50149613618851 -0.39137133955956
v 0.01174352224916 0.50149613618851 -0.39137148857117
v 0.30104571580887 0.45486238598824 -0.50370275974274
v -0.00348306191154 0.45486238598824 -0.50370281934738
v 0.25978210568428 0.52676975727081 -0.45949196815491
v 0.05086878687143 0.76014792919159 -0.2604416012764
v 0.24669413268566 0.76014792919159 -0.26044145226479
v 0.03778050839901 0.52676975727081 -0.45949196815491
v 0.0694719851017 0.77820491790771 -0.30911320447922
v 0.22809049487114 0.77820491790771 -0.3091131746769
v 0.09049900621176 0.79303508996964 -0.15357372164726
v 0.20706337690353 0.79303508996964 -0.15357366204262
v 0.06903138011694 0.82904976606369 -0.25927746295929
v 0.22853095829487 0.82904976606369 -0.25927710533142
v -0.00348306191154 -1.77542781829834 0.16981279850006
v 0.30104541778564 -1.77542781829834 0.16981296241283
v 0.02544674277306 -1.92426490783691 -0.12547075748444
v 0.27211529016495 -1.92426490783691 -0.12547081708908
v 0.02544718421996 -1.92426490783691 0.1388163715601
v 0.27211514115334 -1.92426490783691 0.13881653547287
v 0.0678621083498 -2.0234899520874 -0.08002657443285
v 0.2297011166811 -2.0234899520874 -0.08002679049969
v 0.06786240637302 -2.0234899520874 0.09337214380503
v 0.22970126569271 -2.0234899520874 0.09337235242128
v -0.4352932870388 -0.09035912901163 0.12801720201969
v -0.4352932870388 -0.31686669588089 0.12801720201969
# 84 vertices

vn 0.94063526391983 0.2204711586237 0.25806534290314
vn 0 0.41375583410263 0.9103878736496
vn -0.94063526391983 0.2204711586237 0.25806534290314
vn 0 -0.9545539021492 -0.29803830385208
vn 0.93939262628555 0.23116058111191 0.25319224596024
vn 0 0.68585878610611 0.72773468494415
vn -0.93939262628555 0.23116058111191 0.25319224596024
vn 0.92660361528397 0.21165849268436 -0.31081581115723
vn 0 0.93556022644043 -0.35316717624664
vn 0.76695436239243 0.64170163869858 0
vn 0 0.64170163869858 0.76695436239243
vn -0.76695436239243 0.64170163869858 0
vn 0 0.64170163869858 -0.76695436239243
vn -0.85373955965042 0.52070021629334 0
vn 0 0.52070021629334 -0.85373955965042
vn 0.85373955965042 0.52070021629334 0
vn 0 0.52070021629334 0.85373955965042
vn -0.92660361528397 0.21165849268436 -0.31081581115723
vn 0.81851279735565 0.55494618415833 -0.1485648304224
vn 0 0.93364650011063 0.35819575190544
vn -0.81851279735565 0.55494618415833 -0.1485648304224
vn 0 -0.78780496120453 -0.61592477560043
vn 0.82886344194412 0.54588800668716 -0.12244041264057
vn 0 -0.42716455459595 0.90417391061783
vn -0.82886344194412 0.54588800668716 -0.12244041264057
vn 0 0.49770644307137 -0.8673455119133
vn -0.92420464754105 0.26822373270988 -0.27184882760048
vn 0 0.48741436004639 -0.87317079305649
vn 0.92420464754105 0.26822373270988 -0.27184882760048
vn 0 -0.94970953464508 0.31313228607178
vn -0.92699164152145 0.2487561404705 -0.28072565793991
vn 0 0.67498558759689 -0.73783087730408
vn 0.92698442935944 0.24878545105457 -0.28072348237038
vn 0.80576765537262 -0.59223175048828 0
vn -0.92677688598633 0.23972570896149 0.28916463255882
vn 0 0.93936657905579 0.34291458129883
vn 0.92677688598633 0.23972570896149 0.28916463255882
vn 0 1 0
vn 0 -0.59223175048828 0.80576765537262
vn -0.80576765537262 -0.59223175048828 0
vn 0 -0.59223175048828 -0.80576765537262
vn 1 0 0
vn 0 0 1
vn -1 0 0
vn 0 0 -1
vn 0.8673455119133 0.49770644307137 0
vn 0 -0.75322872400284 0.65775871276855
vn -0.8673455119133 0.49770644307137 0
vn 0 -0.78036242723465 -0.6253274679184
vn -0.7787669301033 0.58166891336441 0.23491136729717
vn 0 0.94794321060181 -0.31843942403793
vn 0.7787669301033 0.58166891336441 0.23491136729717
vn 0 -0.79640060663223 0.6047694683075
vn -0.84033769369125 0.53439104557037 0.09087772667408
vn 0 -0.35069531202316 -0.93648958206177
vn 0.84033769369125 0.53439104557037 0.09087772667408
vn 0 0.49770644307137 0.8673455119133
# 57 normals

o Default
usemtl mat15
f 50//1 53//1 52//1 46//1
f 53//2 54//2 49//2 52//2
f 54//3 51//3 45//3 49//3
f 56//4 55//4 50//4 51//4
f 57//5 53//5 50//5
f 57//6 58//6 54//6 53//6
f 58//7 51//7 54//7
f 55//8 57//8 50//8
f 55//9 56//9 58//9 57//9
f 56//18 51//18 58//18
f 35//19 59//19 30//19 26//19
f 59//20 60//20 33//20 30//20
f 60//21 36//21 28//21 33//21
f 62//22 61//22 35//22 36//22
f 61//23 63//23 59//23 35//23
f 65//24 64//24 60//24 59//24
f 66//25 62//25 36//25 60//25
f 66//26 63//26 61//26 62//26
f 64//27 67//27 66//27 60//27
f 67//28 68//28 63//28 66//28
f 68//29 65//29 59//29 63//29
f 70//30 69//30 64//30 65//30
f 71//31 67//31 64//31
f 71//32 72//32 68//32 67//32
f 72//33 65//33 68//33
f 12//34 11//34 3//34 4//34
f 69//35 71//35 64//35
f 69//36 70//36 72//36 71//36
f 70//37 65//37 72//37
f 11//39 23//39 14//39 3//39
f 23//40 24//40 6//40 14//40
f 24//41 12//41 4//41 6//41
f 26//42 25//42 11//42 12//42
f 25//43 27//43 23//43 11//43
f 27//44 28//44 24//44 23//44
f 28//45 26//45 12//45 24//45
f 30//46 29//46 25//46 26//46
f 32//47 31//47 27//47 25//47
f 34//48 33//48 28//48 27//48
f 36//49 35//49 26//49 28//49
f 31//50 45//50 34//50 27//50
f 45//51 46//51 29//51 34//51
f 46//52 32//52 25//52 29//52
f 48//53 47//53 31//53 32//53
f 47//54 49//54 45//54 31//54
f 51//55 50//55 46//55 45//55
f 52//56 48//56 32//56 46//56
f 52//57 49//57 47//57 48//57

usemtl mat23
f 38//10 37//10 29//10 30//10
f 37//11 39//11 34//11 29//11
f 39//12 40//12 33//12 34//12
f 40//13 38//13 30//13 33//13
f 42//14 41//14 37//14 38//14
f 41//15 43//15 39//15 37//15
f 43//16 44//16 40//16 39//16
f 44//17 42//17 38//17 40//17

usemtl mat8
f 44//38 43//38 41//38 42//38

